<svg width="21" height="20" viewBox="0 0 21 20" fill="none" xmlns="http://www.w3.org/2000/svg">
<path d="M10.5 10.8335C10.9603 10.8335 11.3334 10.4604 11.3334 10.0002C11.3334 9.53993 10.9603 9.16683 10.5 9.16683C10.0398 9.16683 9.66669 9.53993 9.66669 10.0002C9.66669 10.4604 10.0398 10.8335 10.5 10.8335Z" stroke="#98A2B3" stroke-width="1.66667" stroke-linecap="round" stroke-linejoin="round"/>
<path d="M10.5 5.00016C10.9603 5.00016 11.3334 4.62707 11.3334 4.16683C11.3334 3.70659 10.9603 3.3335 10.5 3.3335C10.0398 3.3335 9.66669 3.70659 9.66669 4.16683C9.66669 4.62707 10.0398 5.00016 10.5 5.00016Z" stroke="#98A2B3" stroke-width="1.66667" stroke-linecap="round" stroke-linejoin="round"/>
<path d="M10.5 16.6668C10.9603 16.6668 11.3334 16.2937 11.3334 15.8335C11.3334 15.3733 10.9603 15.0002 10.5 15.0002C10.0398 15.0002 9.66669 15.3733 9.66669 15.8335C9.66669 16.2937 10.0398 16.6668 10.5 16.6668Z" stroke="#98A2B3" stroke-width="1.66667" stroke-linecap="round" stroke-linejoin="round"/>
</svg>
