<svg width="41" height="40" viewBox="0 0 41 40" fill="none" xmlns="http://www.w3.org/2000/svg">
<path d="M4.5 4C4.5 1.79086 6.29086 0 8.5 0H24.5L36.5 12V36C36.5 38.2091 34.7091 40 32.5 40H8.5C6.29086 40 4.5 38.2091 4.5 36V4Z" fill="#D92D20"/>
<path opacity="0.3" d="M24.5 0L36.5 12H28.5C26.2909 12 24.5 10.2091 24.5 8V0Z" fill="white"/>
<path d="M25.5745 25.1945C24.5764 25.1945 23.3274 25.3686 22.9187 25.4299C21.2274 23.6637 20.7462 22.6598 20.638 22.3921C20.7847 22.0152 21.295 20.5835 21.3676 18.7448C21.4033 17.8241 21.2089 17.1362 20.7894 16.7002C20.3707 16.2648 19.8638 16.231 19.7185 16.231C19.2089 16.231 18.3539 16.4887 18.3539 18.2144C18.3539 19.7117 19.0521 21.3006 19.245 21.7111C18.2283 24.6715 17.1367 26.6981 16.905 27.1149C12.8195 28.6531 12.5 30.1404 12.5 30.5619C12.5 31.3194 13.0395 31.7716 13.943 31.7716C16.1384 31.7716 18.1418 28.0858 18.4731 27.4458C20.0323 26.8246 22.1192 26.4397 22.6497 26.3479C24.1715 27.7975 25.9314 28.1843 26.6623 28.1843C27.2122 28.1843 28.4999 28.1843 28.4999 26.8603C28.5 25.6307 26.9241 25.1945 25.5745 25.1945ZM25.4687 26.0637C26.6545 26.0637 26.9679 26.4559 26.9679 26.6632C26.9679 26.7933 26.9185 27.2178 26.2829 27.2178C25.713 27.2178 24.7289 26.8885 23.7607 26.1737C24.1645 26.1207 24.7619 26.0637 25.4687 26.0637ZM19.6562 17.0735C19.7644 17.0735 19.8355 17.1082 19.8942 17.1896C20.2353 17.6629 19.9603 19.2092 19.6256 20.4192C19.3025 19.3817 19.06 17.7896 19.4012 17.2295C19.4678 17.1202 19.5441 17.0735 19.6562 17.0735ZM19.0803 26.3356C19.5097 25.4683 19.9908 24.2043 20.2529 23.4894C20.7774 24.3673 21.4829 25.1823 21.8909 25.6242C20.6205 25.8921 19.6594 26.1596 19.0803 26.3356ZM13.3528 30.6776C13.3245 30.6441 13.3203 30.5734 13.3417 30.4885C13.3863 30.3105 13.7279 29.4286 16.1985 28.3235C15.8447 28.8807 15.2917 29.6769 14.6842 30.2717C14.2565 30.672 13.9235 30.875 13.6944 30.875C13.6124 30.875 13.4995 30.8526 13.3528 30.6776Z" fill="white"/>
</svg>
