<svg width="59" height="58" viewBox="0 0 59 58" fill="none" xmlns="http://www.w3.org/2000/svg">
<g clip-path="url(#clip0_646_19932)">
<path d="M39.1667 28.9998V14.4998C39.1667 13.218 38.6574 11.9886 37.751 11.0822C36.8446 10.1757 35.6152 9.6665 34.3333 9.6665C33.0515 9.6665 31.8221 10.1757 30.9157 11.0822C30.0092 11.9886 29.5 13.218 29.5 14.4998V28.9998H44C44.9559 28.9998 45.8904 28.7164 46.6853 28.1853C47.4801 27.6542 48.0996 26.8993 48.4654 26.0161C48.8312 25.133 48.927 24.1611 48.7405 23.2236C48.554 22.286 48.0936 21.4248 47.4177 20.7488C46.7417 20.0729 45.8805 19.6125 44.9429 19.426C44.0054 19.2395 43.0335 19.3353 42.1504 19.7011C41.2672 20.0669 40.5123 20.6864 39.9812 21.4812C39.4501 22.2761 39.1667 23.2106 39.1667 24.1665" stroke="#F5F5F5" stroke-width="2.75" stroke-linecap="round" stroke-linejoin="round"/>
<path d="M29.5 38.6667H44C45.2819 38.6667 46.5113 38.1574 47.4177 37.251C48.3241 36.3446 48.8333 35.1152 48.8333 33.8333C48.8333 32.5515 48.3241 31.3221 47.4177 30.4157C46.5113 29.5092 45.2819 29 44 29H29.5V43.5C29.5 44.4559 29.7835 45.3904 30.3146 46.1853C30.8457 46.9801 31.6005 47.5996 32.4837 47.9654C33.3669 48.3312 34.3387 48.427 35.2763 48.2405C36.2138 48.054 37.0751 47.5936 37.751 46.9177C38.427 46.2417 38.8873 45.3805 39.0738 44.4429C39.2603 43.5054 39.1646 42.5335 38.7988 41.6504C38.4329 40.7672 37.8134 40.0123 37.0186 39.4812C36.2238 38.9501 35.2893 38.6667 34.3333 38.6667" stroke="#F5F5F5" stroke-width="2.75" stroke-linecap="round" stroke-linejoin="round"/>
<path d="M19.8332 29V43.5C19.8332 44.7819 20.3424 46.0113 21.2488 46.9177C22.1553 47.8241 23.3846 48.3333 24.6665 48.3333C25.9484 48.3333 27.1778 47.8241 28.0842 46.9177C28.9906 46.0113 29.4998 44.7819 29.4998 43.5V29H14.9998C14.0439 29 13.1094 29.2835 12.3146 29.8146C11.5197 30.3457 10.9002 31.1005 10.5344 31.9837C10.1686 32.8669 10.0729 33.8387 10.2594 34.7763C10.4459 35.7138 10.9062 36.5751 11.5822 37.251C12.2581 37.927 13.1193 38.3873 14.0569 38.5738C14.9945 38.7603 15.9663 38.6646 16.8495 38.2988C17.7327 37.9329 18.4875 37.3134 19.0186 36.5186C19.5497 35.7238 19.8332 34.7893 19.8332 33.8333" stroke="#F5F5F5" stroke-width="2.75" stroke-linecap="round" stroke-linejoin="round"/>
<path d="M29.4998 19.3332H14.9998C13.718 19.3332 12.4886 19.8424 11.5822 20.7488C10.6757 21.6553 10.1665 22.8846 10.1665 24.1665C10.1665 25.4484 10.6757 26.6778 11.5822 27.5842C12.4886 28.4906 13.718 28.9998 14.9998 28.9998H29.4998V14.4998C29.4998 13.5439 29.2164 12.6094 28.6853 11.8146C28.1542 11.0197 27.3993 10.4002 26.5161 10.0344C25.633 9.6686 24.6611 9.57288 23.7236 9.75938C22.786 9.94587 21.9248 10.4062 21.2488 11.0822C20.5729 11.7581 20.1125 12.6193 19.926 13.5569C19.7395 14.4945 19.8353 15.4663 20.2011 16.3495C20.5669 17.2327 21.1864 17.9875 21.9812 18.5186C22.7761 19.0497 23.7106 19.3332 24.6665 19.3332" stroke="#F5F5F5" stroke-width="2.75" stroke-linecap="round" stroke-linejoin="round"/>
</g>
<defs>
<clipPath id="clip0_646_19932">
<rect width="58" height="58" fill="white" transform="translate(0.5)"/>
</clipPath>
</defs>
</svg>
