<svg width="17" height="16" viewBox="0 0 17 16" fill="none" xmlns="http://www.w3.org/2000/svg">
<g clip-path="url(#clip0_704_1133)">
<path d="M6.93101 6.00016C7.08775 5.55461 7.39711 5.1789 7.80432 4.93958C8.21152 4.70027 8.69028 4.61279 9.1558 4.69264C9.62132 4.77249 10.0436 5.01451 10.3477 5.37585C10.6519 5.73718 10.8184 6.19451 10.8177 6.66683C10.8177 8.00016 8.81768 8.66683 8.81768 8.66683M8.87101 11.3335H8.87768M15.5377 8.00016C15.5377 11.6821 12.5529 14.6668 8.87101 14.6668C5.18911 14.6668 2.20435 11.6821 2.20435 8.00016C2.20435 4.31826 5.18911 1.3335 8.87101 1.3335C12.5529 1.3335 15.5377 4.31826 15.5377 8.00016Z" stroke="#98A2B3" stroke-width="1.33333" stroke-linecap="round" stroke-linejoin="round"/>
</g>
<defs>
<clipPath id="clip0_704_1133">
<rect width="16" height="16" fill="white" transform="translate(0.870972)"/>
</clipPath>
</defs>
</svg>
