<svg width="41" height="40" viewBox="0 0 41 40" fill="none" xmlns="http://www.w3.org/2000/svg">
<rect x="0.5" width="40" height="40" rx="20" fill="#007AFF"/>
<path d="M19.0542 14.24L15.6712 10.335C15.2812 9.88503 14.5662 9.88703 14.1132 10.341L11.3312 13.128C10.5032 13.957 10.2662 15.188 10.7452 16.175C13.6069 22.1 18.3853 26.8851 24.3062 29.755C25.2922 30.234 26.5222 29.997 27.3502 29.168L30.1582 26.355C30.6132 25.9 30.6142 25.181 30.1602 24.791L26.2402 21.426C25.8302 21.074 25.1932 21.12 24.7822 21.532L23.4182 22.898C23.3484 22.9712 23.2565 23.0195 23.1566 23.0354C23.0567 23.0513 22.9543 23.0339 22.8652 22.986C20.6357 21.7021 18.7862 19.8503 17.5052 17.619C17.4573 17.5298 17.4399 17.4273 17.4558 17.3272C17.4717 17.2271 17.52 17.135 17.5932 17.065L18.9532 15.704C19.3652 15.29 19.4102 14.65 19.0542 14.239V14.24Z" stroke="white" stroke-width="1.5" stroke-linecap="round" stroke-linejoin="round"/>
</svg>
