<svg width="436" height="433" viewBox="0 0 436 433" fill="none" xmlns="http://www.w3.org/2000/svg">
<path d="M299.848 117.885C298.63 109.968 291.931 101.791 285.667 97.8322C285.014 97.3982 284.363 97.0053 283.71 96.6147C269.529 106.437 243.601 122.323 213.151 127.152C210.802 127.543 207.931 126.976 206.147 128.587C200.537 133.589 199.406 151.077 185.53 151.468C183.613 156.342 181.875 161.039 180.004 165.04C182.273 161.863 198.849 164.876 203.059 165.824C207.189 166.738 225.003 171.592 224.245 175.395C227.377 168.649 226.159 161.822 224.115 154.686C248.953 149.903 283.362 132.328 299.848 117.885Z" fill="#FECFC4"/>
<path d="M82.608 191.272C78.1902 195.519 72.6121 198.36 66.5793 199.436C60.5467 200.513 54.3302 199.776 48.7164 197.319C43.1025 194.863 38.3431 190.796 35.0401 185.635C31.7372 180.473 30.0391 174.448 30.1604 168.321C30.2819 162.195 32.2173 156.241 35.7222 151.215C39.2268 146.188 44.1436 142.313 49.8505 140.081C55.5573 137.849 61.798 137.359 67.7833 138.673C73.7686 139.988 79.2297 143.048 83.476 147.466C86.2979 150.398 88.5143 153.857 89.9981 157.647C91.4819 161.436 92.2042 165.481 92.1238 169.549C92.0432 173.618 91.1612 177.63 89.5283 181.358C87.8955 185.085 85.5439 188.455 82.608 191.272Z" fill="#FECFC4"/>
<path d="M415.559 313.029C418.69 302.198 429.131 305.503 434.874 298.977C435.918 308.941 430.436 318.946 420.518 319.423L415.559 313.029Z" fill="#FECFC4"/>
<path d="M179.481 334.474C175.522 336.781 168.128 331.995 160.038 322.858C160.179 326.011 161.073 329.085 162.646 331.822C168.128 342.087 167.868 367.405 173.958 365.628C175.655 365.105 177.656 356.491 179.44 346.619C180.363 341.849 181.584 337.142 183.094 332.523C182.338 332.909 180.239 333.969 179.481 334.474Z" fill="#007AFF"/>
<path d="M204.799 116.321C205.598 118.643 206.774 120.818 208.28 122.758C212.106 122.193 216.359 121.033 217.152 119.279C217.291 118.983 217.407 118.678 217.502 118.365C216.501 121.54 210.715 119.409 204.799 116.321Z" fill="#007AFF"/>
<path d="M209.932 92.96C202.232 84.8693 177.133 91.2194 160.125 103.531C143.03 115.884 147.945 127.456 170.086 122.15C168.782 122.54 154.599 126.803 145.334 137.454C131.718 153.115 143.55 159.117 158.811 155.986C177.037 152.244 192.697 137.28 198.004 126.926C200.441 120.826 202.094 114.44 202.924 107.924C196.574 102.748 200.445 98.0492 203.924 101.617C205.795 103.531 207.883 102.618 205.578 96.3634C207.901 94.9221 210.69 94.4607 209.932 92.96Z" fill="#007AFF"/>
<path d="M268.005 345.872C267.201 335.543 267.318 325.164 268.352 314.855C260.1 317.185 251.344 317.05 243.167 314.464C243.34 321.687 241.079 325.339 242.95 329.821C244.074 332.334 245.668 334.606 247.646 336.518C255.826 344.785 262.829 369.144 268.179 365.665C269.659 364.703 269.093 355.877 268.005 345.872Z" fill="#007AFF"/>
<path d="M186.181 163.649C185.789 165.668 185.177 167.638 184.353 169.522C177.263 165.998 178.917 163.693 186.181 163.649Z" fill="#007AFF"/>
<path d="M224.288 175.342C224.112 176.169 222.938 176.692 220.98 176.941C221.721 175.593 222.374 174.374 222.938 173.156C223.939 174.001 224.416 174.741 224.288 175.342Z" fill="#007AFF"/>
<path d="M243.774 242.08L239.206 255.173C239.032 250.084 238.859 245.082 238.77 240.166L243.774 242.08Z" fill="#007AFF"/>
<path d="M87.5507 334.517C75.8693 314.521 60.3687 297.49 53.0455 300.311C43.1343 304.131 56.5815 334.757 64.293 348.134C77.2558 370.58 92.9163 385.805 99.4492 382.292C108.945 377.001 93.4326 344.584 87.5507 334.517Z" fill="#007AFF"/>
<path d="M167.868 287.408C154.992 265.134 139.375 250.084 132.936 253.83C126.455 257.569 131.675 278.625 144.507 300.896C157.34 323.167 173.001 338.176 179.438 334.474C185.92 330.734 180.701 309.679 167.868 287.408Z" fill="#007AFF"/>
<path d="M183.092 332.516C181.586 337.135 180.366 341.842 179.438 346.612C177.674 356.489 175.657 365.114 173.956 365.621C167.877 367.448 168.106 342.094 162.644 331.815C161.068 329.081 160.173 326.006 160.036 322.852" stroke="#120071" stroke-width="1.5" stroke-linecap="round" stroke-linejoin="round"/>
<path d="M333.647 168.825C332.779 167.42 331.614 166.224 330.232 165.32C328.85 164.415 327.287 163.826 325.652 163.594C324.016 163.361 322.351 163.491 320.773 163.974C319.194 164.457 317.739 165.281 316.515 166.388C316.031 164.735 315.17 163.217 314.005 161.95C312.838 160.684 311.394 159.703 309.786 159.085C308.18 158.466 306.451 158.226 304.735 158.383C303.02 158.541 301.366 159.091 299.898 159.992C298.627 160.774 297.524 161.799 296.652 163.008C295.777 164.217 295.151 165.587 294.808 167.039C293.002 165.677 290.827 164.892 288.568 164.788C286.309 164.684 284.07 165.265 282.147 166.455C280.224 167.644 278.705 169.388 277.789 171.456C276.873 173.524 276.605 175.82 277.017 178.044C275.548 177.66 274.017 177.573 272.517 177.79C271.014 178.007 269.572 178.523 268.273 179.307C266.806 180.208 265.568 181.432 264.65 182.887C263.732 184.342 263.161 185.989 262.98 187.699C262.8 189.41 263.014 191.139 263.608 192.754C264.2 194.369 265.157 195.826 266.402 197.012C264.876 197.613 263.501 198.541 262.373 199.729C261.244 200.918 260.388 202.339 259.867 203.893C259.344 205.446 259.168 207.096 259.351 208.725C259.531 210.354 260.068 211.924 260.92 213.324C262.11 215.291 263.889 216.837 266.002 217.741C268.117 218.646 270.463 218.865 272.709 218.37L333.434 181.137C334.962 180.216 336.819 173.949 333.647 168.825Z" stroke="#120071" stroke-width="1.5" stroke-linecap="round" stroke-linejoin="round"/>
<path d="M287.581 186.094C289.016 187.446 289.941 189.251 290.201 191.205C290.461 193.159 290.041 195.144 289.009 196.824C287.976 198.504 286.398 199.778 284.538 200.43C282.677 201.083 280.648 201.074 278.794 200.407" stroke="#120071" stroke-width="1.5" stroke-linecap="round" stroke-linejoin="round"/>
<path d="M314.638 178.439C314.396 180.199 313.619 181.841 312.408 183.141C311.198 184.441 309.615 185.336 307.879 185.703C306.14 186.069 304.331 185.89 302.698 185.189C301.067 184.488 299.692 183.3 298.76 181.788C298.365 181.135 298.059 180.433 297.846 179.7" stroke="#120071" stroke-width="1.5" stroke-linecap="round" stroke-linejoin="round"/>
<path d="M316.508 166.388C315.339 167.491 314.368 168.787 313.637 170.219" stroke="#120071" stroke-width="1.5" stroke-linecap="round" stroke-linejoin="round"/>
<path d="M270.363 196.279C269.013 196.347 267.679 196.595 266.395 197.015" stroke="#120071" stroke-width="1.5" stroke-linecap="round" stroke-linejoin="round"/>
<path d="M294.802 167.042C294.516 168.459 294.47 169.914 294.662 171.347" stroke="#120071" stroke-width="1.5" stroke-linecap="round" stroke-linejoin="round"/>
<path d="M281.32 180.063C280.016 179.14 278.556 178.457 277.01 178.046" stroke="#120071" stroke-width="1.5" stroke-linecap="round" stroke-linejoin="round"/>
<path d="M349.134 193.968C345.906 188.652 339.245 187.704 338.085 188.575L277.314 225.855C275.575 226.899 273.188 233.215 276.489 238.555C277.348 239.951 278.501 241.143 279.867 242.046C281.236 242.95 282.784 243.542 284.406 243.782C286.028 244.019 287.682 243.9 289.253 243.432C290.822 242.964 292.273 242.158 293.497 241.068C294.194 243.464 295.674 245.559 297.698 247.018C299.722 248.478 302.175 249.218 304.669 249.124C307.164 249.028 309.555 248.103 311.462 246.493C313.37 244.885 314.683 242.683 315.197 240.241C316.993 241.616 319.163 242.418 321.422 242.539C323.681 242.662 325.924 242.098 327.859 240.922C329.791 239.745 331.324 238.014 332.256 235.951C333.185 233.889 333.471 231.593 333.076 229.366C335.485 229.976 338.03 229.768 340.31 228.777C342.589 227.783 344.476 226.061 345.671 223.882C346.865 221.7 347.302 219.185 346.911 216.727C346.52 214.273 345.326 212.016 343.514 210.313C345.056 209.728 346.452 208.811 347.601 207.626C348.748 206.442 349.622 205.019 350.159 203.459C350.694 201.898 350.881 200.239 350.703 198.599C350.527 196.959 349.99 195.377 349.134 193.968Z" stroke="#120071" stroke-width="1.5" stroke-linecap="round" stroke-linejoin="round"/>
<path d="M312.81 227.246C312.363 225.732 311.508 224.371 310.339 223.311C309.169 222.251 307.732 221.534 306.181 221.237C304.63 220.94 303.029 221.077 301.551 221.629C300.074 222.185 298.776 223.133 297.803 224.375C296.85 225.602 296.236 227.057 296.019 228.594" stroke="#120071" stroke-width="1.5" stroke-linecap="round" stroke-linejoin="round"/>
<path d="M331.908 206.636C330.234 206.057 328.42 206.01 326.716 206.499C325.015 206.989 323.503 207.991 322.39 209.37C321.278 210.749 320.615 212.438 320.499 214.206C320.38 215.974 320.81 217.737 321.728 219.251C322.121 219.909 322.605 220.51 323.165 221.035" stroke="#120071" stroke-width="1.5" stroke-linecap="round" stroke-linejoin="round"/>
<path d="M343.521 210.325C341.989 210.891 340.369 211.186 338.736 211.195" stroke="#120071" stroke-width="1.5" stroke-linecap="round" stroke-linejoin="round"/>
<path d="M295.905 237.929C295.254 239.09 294.443 240.152 293.497 241.088" stroke="#120071" stroke-width="1.5" stroke-linecap="round" stroke-linejoin="round"/>
<path d="M333.083 229.377C331.682 228.975 330.358 228.347 329.161 227.518" stroke="#120071" stroke-width="1.5" stroke-linecap="round" stroke-linejoin="round"/>
<path d="M315.327 235.593C315.535 237.144 315.492 238.715 315.204 240.253" stroke="#120071" stroke-width="1.5" stroke-linecap="round" stroke-linejoin="round"/>
<path d="M277.314 225.855L270.833 229.768" stroke="#120071" stroke-width="1.5" stroke-linecap="round" stroke-linejoin="round"/>
<path d="M272.704 218.372L266.308 222.244" stroke="#120071" stroke-width="1.5" stroke-linecap="round" stroke-linejoin="round"/>
<path d="M238.992 249.126L169.913 291.06" stroke="#120071" stroke-width="1.5" stroke-linecap="round" stroke-linejoin="round"/>
<path d="M237.598 239.686L165.518 283.493" stroke="#120071" stroke-width="1.5" stroke-linecap="round" stroke-linejoin="round"/>
<path d="M298.934 118.668C314.405 117.237 329.96 120.307 343.727 127.507C357.494 134.707 368.89 145.732 376.54 159.254C399.647 198.965 387.543 250.252 349.524 273.791C325.743 288.515 319.144 280.731 272.965 293.892" stroke="#120071" stroke-width="1.5" stroke-linecap="round" stroke-linejoin="round"/>
<path d="M179.936 334.136C201.06 323.119 219.939 313.489 239.382 305.546" stroke="#120071" stroke-width="1.5" stroke-linecap="round" stroke-linejoin="round"/>
<path d="M182.352 216.762C167.694 228.507 151.641 239.949 132.892 253.782" stroke="#120071" stroke-width="1.5" stroke-linecap="round" stroke-linejoin="round"/>
<path d="M245.342 148.466C236.225 162.173 225.997 175.107 214.761 187.138" stroke="#120071" stroke-width="1.5" stroke-linecap="round" stroke-linejoin="round"/>
<path d="M283.666 96.6581C291.017 100.79 298.5 109.274 299.847 117.885C283.36 132.328 248.953 149.903 224.114 154.686C226.159 161.822 227.376 168.652 224.245 175.395C225.003 171.596 207.449 166.804 203.059 165.824C198.773 164.867 182.254 161.893 180.004 165.04C181.875 161.039 183.615 156.34 185.53 151.468C199.406 151.077 200.514 133.564 206.147 128.587C207.922 127.02 210.715 127.545 213.15 127.152C243.583 122.202 269.529 106.446 283.709 96.6147L283.666 96.6581Z" stroke="#120071" stroke-width="1.5" stroke-linecap="round" stroke-linejoin="round"/>
<path d="M182.494 172.784C194.948 172.586 207.212 175.843 217.927 182.195" stroke="#120071" stroke-width="1.5" stroke-linecap="round" stroke-linejoin="round"/>
<path d="M217.301 118.829C215.882 121.309 210.4 119.244 204.799 116.316C205.597 118.638 206.774 120.814 208.28 122.753" stroke="#120071" stroke-width="1.5" stroke-linecap="round" stroke-linejoin="round"/>
<path d="M211.538 127.314C208.506 126.57 209.317 125.094 208.28 122.757C216.458 121.549 217.874 120.044 217.538 115.946C217.047 109.993 213.552 97.0236 209.932 92.96" stroke="#120071" stroke-width="1.5" stroke-linecap="round" stroke-linejoin="round"/>
<path d="M224.115 154.686C221.59 155.166 219.155 155.513 216.892 155.732" stroke="#120071" stroke-width="1.5" stroke-linecap="round" stroke-linejoin="round"/>
<path d="M205.583 96.3543C207.888 102.618 205.811 103.531 203.929 101.608C200.448 98.0423 196.578 102.75 202.929 107.915C202.101 114.434 200.449 120.821 198.013 126.924C192.707 137.278 177.046 152.242 158.82 155.983C143.551 159.115 131.718 153.112 145.344 137.452C154.608 126.794 168.791 122.531 170.095 122.148C147.955 127.454 143.043 115.889 160.134 103.529C177.147 91.2239 202.241 84.867 209.941 92.9577C210.677 94.447 207.819 94.9723 205.583 96.3543Z" stroke="#120071" stroke-width="1.5" stroke-linecap="round" stroke-linejoin="round"/>
<path d="M185.53 151.468C187.827 145.251 190.788 139.301 194.36 133.719C195.773 131.606 196.981 129.364 197.969 127.022" stroke="#120071" stroke-width="1.5" stroke-linecap="round" stroke-linejoin="round"/>
<path d="M214.827 187.069C217.844 182.627 220.56 177.989 222.961 173.186" stroke="#120071" stroke-width="1.5" stroke-linecap="round" stroke-linejoin="round"/>
<path d="M309.331 94.5269C315.898 92.9599 321.305 95.9203 320.857 98.442C320.757 98.9475 320.549 99.4258 320.25 99.8455C319.948 100.265 319.565 100.617 319.119 100.877" stroke="#120071" stroke-width="1.5" stroke-linecap="round" stroke-linejoin="round"/>
<path d="M308.721 90.5251C315.638 88.8713 322.511 92.3525 319.553 96.0072" stroke="#120071" stroke-width="1.5" stroke-linecap="round" stroke-linejoin="round"/>
<path d="M299.107 114.754C303.2 110.081 308.452 106.571 314.334 104.575" stroke="#120071" stroke-width="1.5" stroke-linecap="round" stroke-linejoin="round"/>
<path d="M309.069 99.2233C315.464 97.919 319.676 100.441 319.423 102.921C319.11 105.966 313.027 110.578 307.895 107.62" stroke="#120071" stroke-width="1.5" stroke-linecap="round" stroke-linejoin="round"/>
<path d="M303.676 88.2178C303.762 88.131 306.417 84.4352 305.243 83.2588C304.242 82.2583 289.799 94.1339 285.754 97.9189" stroke="#120071" stroke-width="1.5" stroke-linecap="round" stroke-linejoin="round"/>
<path d="M311.983 90.0888C323.468 84.5656 326.552 77.9025 324.382 79.1246C317.141 82.7496 309.704 85.9735 302.109 88.7822C296.229 91.0191 290.706 94.0966 285.71 97.919" stroke="#120071" stroke-width="1.5" stroke-linecap="round" stroke-linejoin="round"/>
<path d="M268.353 314.854C267.327 325.163 267.211 335.542 268.006 345.872C269.113 355.874 269.657 364.705 268.179 365.664C262.825 369.139 255.81 344.8 247.646 336.518C245.664 334.608 244.069 332.333 242.95 329.821C241.075 325.332 243.348 321.673 243.165 314.427" stroke="#120071" stroke-width="1.5" stroke-linecap="round" stroke-linejoin="round"/>
<path d="M167.868 287.408C180.717 309.669 185.925 330.741 179.438 334.462C173.005 338.167 157.34 323.153 144.508 300.884C131.675 278.616 126.46 257.573 132.936 253.825C139.412 250.077 155.008 265.125 167.868 287.408Z" stroke="#120071" stroke-width="1.5" stroke-linecap="round" stroke-linejoin="round"/>
<path d="M101.843 370.029C98.5903 349.784 79.0374 316.102 63.1622 303.938C54.9619 297.586 49.0892 298.71 49.7608 309.363C51.0354 329.578 73.5462 368.579 90.3488 380.023C99.6775 386.373 103.689 381.521 101.843 370.029Z" stroke="#120071" stroke-width="1.5" stroke-linecap="round" stroke-linejoin="round"/>
<path d="M99.8811 382.063L112.796 374.591C114.04 373.616 114.886 372.22 115.175 370.667C115.463 369.114 115.174 367.508 114.363 366.151C119.502 373.892 129.587 365.9 125.542 359.191C129.295 365.587 141.095 361.457 136.243 351.754C137.343 353.179 138.91 354.168 140.669 354.55C142.427 354.934 144.264 354.682 145.855 353.842C151.109 350.488 149.161 343.967 145.901 333.352C139.804 315.122 130.132 298.29 117.451 283.842C114.404 280.213 110.915 276.976 107.065 274.212C100.978 270.436 94.1295 273.266 96.4845 283.538C94.5475 280.311 92.2747 278.2 88.435 279.23C87.4656 279.5 86.5717 279.991 85.8237 280.663C85.0754 281.336 84.4931 282.172 84.1226 283.109C83.7519 284.043 83.603 285.053 83.6875 286.056C83.7718 287.058 84.0872 288.027 84.6089 288.888C84.6089 288.888 80.1022 283.191 74.9947 287.236C73.7263 288.226 72.8718 289.651 72.5981 291.234C72.3245 292.819 72.6511 294.448 73.5145 295.805C73.1034 295.078 72.5524 294.443 71.8937 293.931C71.2349 293.42 70.4816 293.045 69.6766 292.826C68.8719 292.607 68.032 292.552 67.2051 292.659C66.3782 292.767 65.5813 293.038 64.8597 293.456L52.7031 300.451" stroke="#120071" stroke-width="1.5" stroke-linecap="round" stroke-linejoin="round"/>
<path d="M415.558 313.029C410.193 315.992 405.049 319.336 400.161 323.034C385.802 334.124 371.798 348.046 373.664 350.483C375.53 352.921 392.504 342.92 406.897 331.821C411.721 328.03 416.257 323.886 420.469 319.423" stroke="#120071" stroke-width="1.5" stroke-linecap="round" stroke-linejoin="round"/>
<path d="M415.558 313.029C418.69 302.198 429.131 305.503 434.874 298.977C435.918 308.941 430.435 318.946 420.517 319.423L415.558 313.029Z" stroke="#120071" stroke-width="1.5" stroke-linecap="round" stroke-linejoin="round"/>
<path d="M401.965 321.671L408.685 330.385" stroke="#120071" stroke-width="1.5" stroke-linecap="round" stroke-linejoin="round"/>
<path d="M425.783 104.662L420.083 117.428H430.522L424.78 130.197" stroke="#120071" stroke-width="1.5" stroke-linecap="round" stroke-linejoin="round"/>
<path d="M222.938 419.997L199.797 420.691" stroke="#120071" stroke-width="1.5" stroke-linecap="round" stroke-linejoin="round"/>
<path d="M211.716 431.916L211.019 408.772" stroke="#120071" stroke-width="1.5" stroke-linecap="round" stroke-linejoin="round"/>
<path d="M186.181 163.649C185.789 165.668 185.177 167.638 184.353 169.522C177.263 165.998 178.917 163.693 186.181 163.649Z" stroke="#120071" stroke-width="1.5" stroke-linecap="round" stroke-linejoin="round"/>
<path d="M224.245 175.395C224.035 176.183 222.918 176.697 221.029 176.952" stroke="#120071" stroke-width="1.5" stroke-linecap="round" stroke-linejoin="round"/>
<path d="M186.181 163.649C185.468 168.591 182.959 173.097 179.134 176.306C162.039 189.879 161.774 208.888 174.262 223.114" stroke="#120071" stroke-width="1.5" stroke-linecap="round" stroke-linejoin="round"/>
<path d="M51.9426 300.925L32.6685 311.853" stroke="#120071" stroke-width="1.5" stroke-linecap="round" stroke-linejoin="round"/>
<path d="M98.9972 382.54L81.6943 392.634" stroke="#120071" stroke-width="1.5" stroke-linecap="round" stroke-linejoin="round"/>
<path d="M73.341 397.897L60.5083 405.38" stroke="#120071" stroke-width="1.5" stroke-linecap="round" stroke-linejoin="round"/>
<path d="M23.7074 317.465L10.6143 324.905" stroke="#120071" stroke-width="1.5" stroke-linecap="round" stroke-linejoin="round"/>
<path d="M64.3363 348.133L22.1836 373.059" stroke="#120071" stroke-width="1.5" stroke-linecap="round" stroke-linejoin="round"/>
<path d="M13.7893 378.324L1 385.761" stroke="#120071" stroke-width="1.5" stroke-linecap="round" stroke-linejoin="round"/>
<path d="M82.608 191.272C78.1902 195.519 72.6121 198.36 66.5793 199.436C60.5467 200.513 54.3302 199.776 48.7164 197.319C43.1025 194.863 38.3431 190.796 35.0401 185.635C31.7372 180.473 30.0391 174.448 30.1604 168.321C30.2819 162.195 32.2173 156.241 35.7222 151.215C39.2268 146.188 44.1436 142.313 49.8505 140.081C55.5573 137.849 61.798 137.359 67.7833 138.673C73.7686 139.988 79.2297 143.048 83.476 147.466C86.2979 150.398 88.5143 153.857 89.9981 157.647C91.4819 161.436 92.2042 165.481 92.1238 169.549C92.0432 173.618 91.1612 177.63 89.5283 181.358C87.8955 185.085 85.5439 188.455 82.608 191.272Z" stroke="#120071" stroke-width="1.5" stroke-linecap="round" stroke-linejoin="round"/>
<path d="M92.0897 170.774C101.704 175.342 107.394 179.682 106.576 182.423C105.112 187.373 83.476 185.468 58.2035 178.159C32.931 170.849 13.6089 160.906 15.0503 155.949C15.8726 153.119 23.1843 152.512 34.0092 153.862" stroke="#120071" stroke-width="1.5" stroke-linecap="round" stroke-linejoin="round"/>
<path d="M175.97 203.102C177.231 211.019 181.681 218.279 187.672 220.156C206.382 226.008 238.784 240.209 238.784 240.209C239.188 262.613 241.216 287.264 239.046 313.03C249.421 317.397 261.066 317.66 271.628 313.767C273.456 289.452 274.627 266.135 274.193 244.602C274.095 239.243 272.855 233.969 270.552 229.128C268.248 224.291 264.938 219.999 260.84 216.545C243.934 202.569 225.085 191.125 204.886 182.572" stroke="#120071" stroke-width="1.5" stroke-linecap="round" stroke-linejoin="round"/>
<path d="M238.772 240.209L243.775 242.08L239.209 255.173" stroke="#120071" stroke-width="1.5" stroke-linecap="round" stroke-linejoin="round"/>
<path d="M239.949 295.846C250.525 299.475 261.911 300.033 272.791 297.456" stroke="#120071" stroke-width="1.5" stroke-linecap="round" stroke-linejoin="round"/>
<path d="M230.378 1V8.26606" stroke="#120071" stroke-width="1.5" stroke-linecap="round" stroke-linejoin="round"/>
<path d="M244.515 15.1372H237.249" stroke="#120071" stroke-width="1.5" stroke-linecap="round" stroke-linejoin="round"/>
<path d="M230.378 29.2763V22.0103" stroke="#120071" stroke-width="1.5" stroke-linecap="round" stroke-linejoin="round"/>
<path d="M216.241 15.1372H223.509" stroke="#120071" stroke-width="1.5" stroke-linecap="round" stroke-linejoin="round"/>
<path d="M237.249 15.137C236.346 15.1393 235.451 14.9634 234.617 14.619C233.781 14.2745 233.023 13.7683 232.385 13.1299C231.746 12.4915 231.241 11.7331 230.896 10.8982C230.551 10.0636 230.375 9.16908 230.378 8.26611C230.38 9.1689 230.204 10.0633 229.859 10.8978C229.516 11.7324 229.009 12.4905 228.372 13.1292C227.733 13.7676 226.974 14.2736 226.14 14.6183C225.307 14.9627 224.411 15.1391 223.509 15.137C224.411 15.135 225.307 15.3113 226.14 15.656C226.976 16.0007 227.735 16.5069 228.372 17.1458C229.009 17.7844 229.516 18.543 229.861 19.3779C230.204 20.2125 230.38 21.1073 230.378 22.0102C230.375 21.107 230.551 20.2123 230.896 19.3772C231.239 18.5423 231.746 17.7835 232.383 17.1448C233.023 16.5062 233.781 16 234.615 15.6553C235.451 15.3106 236.346 15.1345 237.249 15.137Z" stroke="#120071" stroke-width="1.5" stroke-linecap="round" stroke-linejoin="round"/>
</svg>
